<svg xmlns="http://www.w3.org/2000/svg" viewBox="0 0 373.56 392.71"><defs><style>.cls-1{isolation:isolate;}.cls-2{fill:#939598;mix-blend-mode:multiply;}</style></defs><title>XX_Coin_PrimaryLogo_FNL1</title><g class="cls-1"><g id="Coin_Art" data-name="Coin Art"><polygon class="cls-2" points="208.75 196.83 373.56 196.35 208.75 195.86 373.39 188.12 208.71 194.9 372.9 179.91 208.63 193.94 372.09 171.73 208.52 192.98 370.94 163.59 208.36 192.02 369.48 155.52 208.17 191.07 367.69 147.5 207.95 190.13 365.59 139.58 207.68 189.21 363.17 131.76 207.38 188.29 360.44 124.04 207.03 187.39 357.41 116.47 206.66 186.51 354.08 109.02 206.25 185.64 350.45 101.73 205.81 184.79 346.54 94.61 205.33 183.97 342.35 87.67 204.82 183.16 337.88 80.91 204.28 182.38 333.16 74.36 203.71 181.62 328.17 68.02 203.11 180.88 322.94 61.91 202.48 180.18 317.46 56.03 201.82 179.5 311.76 50.4 201.14 178.86 305.84 45.02 200.43 178.24 299.71 39.92 199.69 177.66 293.38 35.08 198.94 177.11 286.86 30.52 198.16 176.58 280.17 26.27 197.36 176.1 273.31 22.3 196.55 175.65 266.31 18.65 195.72 175.24 259.16 15.3 194.87 174.86 251.88 12.27 194 174.52 244.5 9.56 193.13 174.23 237 7.19 192.24 173.97 229.43 5.14 191.35 173.75 221.78 3.44 190.44 173.57 214.06 2.06 189.53 173.42 206.3 1.03 188.61 173.32 198.5 0.34 187.7 173.26 190.69 0 186.78 173.24 182.87 0 185.86 173.26 175.05 0.34 184.94 173.32 167.26 1.03 184.02 173.42 159.5 2.06 183.11 173.57 151.78 3.44 182.21 173.75 144.13 5.14 181.32 173.97 136.55 7.19 180.43 174.23 129.06 9.56 179.55 174.52 121.67 12.27 178.69 174.86 114.4 15.3 177.84 175.24 107.25 18.65 177.01 175.65 100.25 22.3 176.19 176.1 93.39 26.27 175.4 176.58 86.7 30.52 174.62 177.11 80.19 35.08 173.86 177.66 73.85 39.92 173.13 178.24 67.72 45.02 172.42 178.86 61.8 50.4 171.74 179.5 56.09 56.03 171.08 180.18 50.62 61.91 170.45 180.88 45.39 68.02 169.84 181.62 40.4 74.36 169.27 182.38 35.67 80.91 168.74 183.16 31.2 87.67 168.22 183.97 27.01 94.61 167.75 184.79 23.11 101.73 167.31 185.64 19.48 109.02 166.9 186.51 16.15 116.47 166.52 187.39 13.12 124.04 166.18 188.29 10.39 131.76 165.88 189.21 7.97 139.58 165.62 190.13 5.87 147.5 165.39 191.07 4.08 155.52 165.19 192.02 2.62 163.59 165.04 192.98 1.47 171.73 164.93 193.94 0.66 179.91 164.85 194.9 0.17 188.12 164.81 195.86 0 196.35 164.81 196.83 0.17 204.57 164.85 197.8 0.66 212.78 164.93 198.77 1.47 220.96 165.04 199.72 2.62 229.1 165.19 200.68 4.08 237.19 165.39 201.63 5.87 245.19 165.62 202.56 7.97 253.12 165.88 203.49 10.39 260.94 166.18 204.41 13.12 268.65 166.52 205.3 16.15 276.24 166.9 206.18 19.48 283.68 167.31 207.05 23.11 290.97 167.75 207.9 27.01 298.09 168.22 208.73 31.2 305.04 168.74 209.54 35.67 311.79 169.27 210.32 40.4 318.35 169.84 211.08 45.39 324.68 170.45 211.81 50.62 330.8 171.08 212.51 56.09 336.68 171.74 213.2 61.8 342.3 172.42 213.84 67.72 347.68 173.13 214.46 73.85 352.78 173.86 215.04 80.19 357.62 174.62 215.59 86.7 362.17 175.4 216.11 93.39 366.44 176.19 216.6 100.25 370.4 177.01 217.05 107.25 374.06 177.84 217.46 114.4 377.4 178.69 217.83 121.67 380.43 179.55 218.17 129.06 383.14 180.43 218.47 136.55 385.51 181.32 218.72 144.13 387.56 182.21 218.94 151.78 389.27 183.11 219.13 159.5 390.64 184.02 219.27 167.26 391.67 184.94 219.38 175.05 392.36 185.86 219.44 182.87 392.71 186.78 219.46 190.69 392.71 187.7 219.44 198.5 392.36 188.61 219.38 206.3 391.67 189.53 219.27 214.06 390.64 190.44 219.13 221.78 389.27 191.35 218.94 229.43 387.56 192.24 218.72 237 385.51 193.13 218.47 244.5 383.14 194 218.17 251.88 380.43 194.87 217.83 259.16 377.4 195.72 217.46 266.31 374.06 196.55 217.05 273.31 370.4 197.36 216.6 280.17 366.44 198.16 216.11 286.86 362.17 198.94 215.59 293.38 357.62 199.69 215.04 299.71 352.78 200.43 214.46 305.84 347.68 201.14 213.84 311.76 342.3 201.82 213.2 317.46 336.68 202.48 212.51 322.94 330.8 203.11 211.81 328.17 324.68 203.71 211.08 333.16 318.35 204.28 210.32 337.88 311.79 204.82 209.54 342.35 305.04 205.33 208.73 346.54 298.09 205.81 207.9 350.45 290.97 206.25 207.05 354.08 283.68 206.66 206.18 357.41 276.24 207.03 205.3 360.44 268.65 207.38 204.41 363.17 260.94 207.68 203.49 365.59 253.12 207.95 202.56 367.69 245.19 208.17 201.63 369.48 237.19 208.36 200.68 370.94 229.1 208.52 199.72 372.09 220.96 208.63 198.77 372.9 212.78 208.71 197.8 373.39 204.57 208.75 196.83"/></g></g></svg>