<?xml version="1.0" encoding="utf-8"?>
<!-- Generator: Adobe Illustrator 18.0.0, SVG Export Plug-In . SVG Version: 6.00 Build 0)  -->
<!DOCTYPE svg PUBLIC "-//W3C//DTD SVG 1.1//EN" "http://www.w3.org/Graphics/SVG/1.1/DTD/svg11.dtd">
<svg version="1.1" id="Layer_1" xmlns="http://www.w3.org/2000/svg" xmlns:xlink="http://www.w3.org/1999/xlink" x="0px" y="0px"
	 viewBox="0 0 10 10" enable-background="new 0 0 10 10" xml:space="preserve">
<polygon fill="#f8f8f8" points="9,4 8,3 7,2 6,1 6,1 5,0 4,1 4,1 3,2 2,3 1,4 0,5 0,6 1,6 1,7 1,8 1,9 1,10 4,10 4,9 4,8 4,7 6,7 6,8 6,9 6,10 
	9,10 9,9 9,8 9,7 9,6 10,6 10,5 "/>
</svg>
