<svg id="scissors" data-name="scissors" xmlns="http://www.w3.org/2000/svg" viewBox="0 0 168.5 117.16">
  <defs><style>.white {fill:#f8f8f8;}</style></defs>
  <title>scissors</title>
  <path d="M65.42,112.41c8.11-6.56,11-18,8.19-27.73L87,73.8,138.63,110c4.24,2.92,10.14,2.33,13.08-1.3s5.35-6.6,5.35-6.6L104.6,59.58,157.06,17.1s-2.42-3-5.36-6.6-8.83-4.22-13.08-1.3L87,45.36,73.61,34.48c2.85-9.77-.08-21.17-8.19-27.73A25.77,25.77,0,0,0,33,46.81a25.61,25.61,0,0,0,18.91,5.6,26,26,0,0,0,2.79-.57l11.54,7.74L54.69,67.32a26,26,0,0,0-2.79-.56,25.77,25.77,0,1,0,13.53,45.65ZM41.84,35.89a12,12,0,0,1-1.73-16.48,11.71,11.71,0,1,1,1.73,16.48ZM79.66,59.57a7,7,0,1,1,7,7A7,7,0,0,1,79.66,59.57ZM40.11,99.75a12,12,0,0,1,1.72-16.47A11.69,11.69,0,0,1,58.31,85a11.71,11.71,0,1,1-18.2,14.73Z" transform="translate(-1 -1)"  class="white"/>
  <rect x="131.95" y="52.2" width="10.35" height="14.75" transform="translate(195.7 -78.55) rotate(90)" class="white"/>
  <rect x="156.95" y="52.2" width="10.35" height="14.75" transform="translate(220.7 -103.55) rotate(90)" class="white"/>
  <rect x="3.2" y="52.2" width="10.35" height="14.75" transform="translate(66.95 50.2) rotate(90)" class="white"/>
  <rect x="28.2" y="52.2" width="10.35" height="14.75" transform="translate(91.95 25.2) rotate(90)" class="white"/>
</svg>
