<svg xmlns="http://www.w3.org/2000/svg" viewBox="0 0 74.1 60"><defs><style>.cls-1{fill:snow;}.cls-2{fill:#fff;}.cls-3{fill:#c22821;}</style></defs><title>Asset 1</title><g id="Layer_2" data-name="Layer 2"><g id="Layer_1-2" data-name="Layer 1"><g id="vector_art" data-name="vector art"><path id="Cart" class="cls-1" d="M71.9,0H67.6a2,2,0,0,0-1.5.6l-.4.4a7.85,7.85,0,0,0-2.4,2.4.52.52,0,0,0-.2.4l-.2.2-.1.1h0a.31.31,0,0,1-.1.2l-.3.7-.3.9c-.8.1-1.9.3-3.3.5h-.1c-3.3.5-22.8,3.3-58,8.4l-.7.1,4.2,22,47,4.8,1,.1h.1a.35.35,0,0,1,.2.1c.2.1.3.1.4.2a2.18,2.18,0,0,1,.5.4c0,.1.1.1.1.2v4.6h0v.1c0,.1,0,.1-.1.2h0a.52.52,0,0,1-.2.4,2.18,2.18,0,0,1-.4.5,1.48,1.48,0,0,1-.7.1H7.8a1.59,1.59,0,0,0-1.7,1.47v0a1.66,1.66,0,0,0,1.7,1.5h.7a4.94,4.94,0,0,0-1.7,3.6,4.8,4.8,0,0,0,9.6,0,4.6,4.6,0,0,0-1.7-3.6H44.8a4.94,4.94,0,0,0-1.7,3.6,4.8,4.8,0,1,0,9.6,0h0A4.6,4.6,0,0,0,51,51.6h.9a4.93,4.93,0,0,0,2.2-.5,3.75,3.75,0,0,0,1.6-1.7,3,3,0,0,0,.4-1h0a.9.9,0,0,0,.1-.5v-.3h0V43a3.4,3.4,0,0,0-.1-1,3.58,3.58,0,0,0-.4-1.1,4.63,4.63,0,0,0-1.6-1.5,3.55,3.55,0,0,0-.9-.4c-.2-.1-.3-.1-.4-.2l-.2-.1h-.2l7.7-20.1,5-13.1h0V5.4l.1-.2c0-.1.1-.1.1-.2V4.9a5.24,5.24,0,0,1,1-1.1,1.7,1.7,0,0,0,.7.1h4.9a2.12,2.12,0,0,0,2.2-2A2.18,2.18,0,0,0,71.9,0ZM49.8,38.4,29.9,36.5,6.9,34,3.7,17.4l6.9-1h0S60.4,9.2,60.9,9.1Z"/><path id="White_Background_6pk" data-name="White Background 6pk" class="cls-2" d="M46,8.7v-5H44.1a4.54,4.54,0,0,0-.1-1c0-.1.2-.2.2-.3a.37.37,0,0,0-.2-.3V1.9c.1-.1.2,0,.3-.1V1.5c-.1-.2-.1-.4-.2-.6S43.7.6,42.3.5h-.1a3.08,3.08,0,0,0-1,.1c-.7.1-.9.2-.9.3a1.07,1.07,0,0,0-.2.6c0,.1-.1.2,0,.3s.2,0,.3.1v.2s-.2.2-.2.3a.37.37,0,0,0,.2.3,6.73,6.73,0,0,1-.1,1H35a4.54,4.54,0,0,0-.1-1c0-.1.2-.2.2-.3a.37.37,0,0,0-.2-.3V1.9c.1-.1.2,0,.3-.1V1.5c-.1-.2-.1-.4-.2-.6S34.6.6,33.2.5h-.1a3.08,3.08,0,0,0-1,.1c-.7.1-.9.2-.9.3a1.07,1.07,0,0,0-.2.6c0,.1-.1.2,0,.3s.2,0,.3.1v.2s-.2.2-.2.3a.37.37,0,0,0,.2.3,6.73,6.73,0,0,1-.1,1H26a4.54,4.54,0,0,0-.1-1c0-.1.2-.2.2-.3a.37.37,0,0,0-.2-.3V1.9c.1-.1.2,0,.3-.1V1.5c-.1-.2-.1-.4-.2-.6S25.6.6,24.2.5h-.1a3.08,3.08,0,0,0-1,.1c-.7.1-.9.2-.9.3a1.07,1.07,0,0,0-.2.6c0,.1-.1.2,0,.3s.2,0,.3.1v.2s-.2.2-.2.3a.37.37,0,0,0,.2.3,6.73,6.73,0,0,1-.1,1H20.1v5l-.9,3.9V34H46.9V12.6Zm-8.2.9H35.5a12.77,12.77,0,0,1-.2-1.7h3.8A1.84,1.84,0,0,1,37.8,9.6ZM30.9,7.9c-.1.5-.1,1.1-.2,1.7H28.8a1.84,1.84,0,0,1-1.3-1.7Z"/><path id="SixPack" d="M46.3,8.6V3.4H44.4V2.8a.52.52,0,0,0,.2-.4.37.37,0,0,0-.1-.3.1.1,0,0,0,.1-.1.51.51,0,0,0,.1-.5c-.1-.3-.1-.5-.3-.7A2.18,2.18,0,0,0,42.7.3h-.5a3.08,3.08,0,0,0-1,.1c-.7.1-1,.2-1.2.5a4.88,4.88,0,0,0-.3.7c0,.1-.1.4.1.5l.1.1a.37.37,0,0,0-.1.3.52.52,0,0,0,.2.4v.6H35.3V2.9a.52.52,0,0,0,.2-.4.37.37,0,0,0-.1-.3.1.1,0,0,0,.1-.1.51.51,0,0,0,.1-.5c-.1-.3-.1-.5-.3-.7-.2-.4-.6-.6-1.8-.6H33a3.08,3.08,0,0,0-1,.1c-.7.1-1,.2-1.2.5a4.88,4.88,0,0,0-.3.7c0,.1-.1.4.1.5l.1.1a.37.37,0,0,0-.1.3.52.52,0,0,0,.2.4v.6H26.2V2.9a.52.52,0,0,0,.2-.4.37.37,0,0,0-.1-.3.1.1,0,0,0,.1-.1h0a.51.51,0,0,0,.1-.5c-.1-.3-.1-.5-.3-.7-.1-.4-.4-.6-1.6-.6h-.5a3.08,3.08,0,0,0-1,.1c-.7.1-1,.2-1.2.5a4.88,4.88,0,0,0-.3.7c0,.1-.1.4.1.5l.1.1a.37.37,0,0,0-.1.3.52.52,0,0,0,.2.4v.6H19.8V8.7l-.9,3.6v22H47.2v-22ZM45.7,4V8.7l.8,3.6H45.4a2.18,2.18,0,0,1-.1-.6,1.76,1.76,0,0,1-.1-.6c0-.1-.2-1.7-.3-2.7l-.3-3.8h0V4ZM40.5,1.1s.1-.1.7-.2h0c.3,0,.6-.1.9-.1h.1c1.4,0,1.6.2,1.6.3a.76.76,0,0,0,.2.4H40.4C40.4,1.4,40.5,1.2,40.5,1.1Zm3.2,1.6a5.81,5.81,0,0,0,.1,1,2.2,2.2,0,0,0,.1.8c-.5,0-1.3-.1-1.7-.1s-1.2.1-1.7.1a2.49,2.49,0,0,1,.1-.8,5.85,5.85,0,0,1,.1-1c0-.2-.1-.3-.2-.3h0l.1-.1.1-.1V2.1h3.1v.1l.1.1.1.1h0A.32.32,0,0,0,43.7,2.7ZM40.1,9.2c.6.1,1.8.3,2.1.3a8.8,8.8,0,0,0,2-.4c.1,1.2.2,1.8.2,2s.1.4.1.6a1.34,1.34,0,0,1,.1.5H39.5a1.34,1.34,0,0,1,.1-.5,3.54,3.54,0,0,1,.1-.6C39.9,11,40,10.4,40.1,9.2ZM40,4c-.1,1.2-.2,3.1-.2,3.3a4.53,4.53,0,0,1-.1.8c-.1.9-.3,2.8-.4,3a1.27,1.27,0,0,0-.1.6c0,.2-.1.5-.1.6H36.4a2.18,2.18,0,0,1-.1-.6,1.76,1.76,0,0,1-.1-.6,8,8,0,0,1-.1-1.1h2a1.69,1.69,0,0,0,.7-.4A2.23,2.23,0,0,0,39.6,8V7.7H35.7l-.1-1.8c0-.6-.1-1.2-.1-1.7H40ZM35.8,9.3c0-.4-.1-.8-.1-1.1h3.1a1.52,1.52,0,0,1-1,1.1ZM31.4,1.1s.1-.1.7-.2h0c.3,0,.6-.1.9-.1h.1c1.4,0,1.6.2,1.6.3a.6.6,0,0,1,.1.4H31.2A.76.76,0,0,0,31.4,1.1Zm3.2,1.6a5.81,5.81,0,0,0,.1,1,2.2,2.2,0,0,0,.1.8c-.5,0-1.3-.1-1.7-.1s-1.2.1-1.6.1a2.49,2.49,0,0,1,.1-.8,5.85,5.85,0,0,1,.1-1c0-.2-.1-.3-.2-.3h0l.1-.1.1-.1V2.1h3.1v.1l.1.1.1.1h0C34.7,2.4,34.6,2.6,34.6,2.7ZM31,9.2c.6.1,1.8.3,2.1.3s1.5-.3,2-.4a7,7,0,0,0,.3,2c0,.1.1.4.1.6a1.34,1.34,0,0,1,.1.5H30.5a1.34,1.34,0,0,1,.1-.5,3.54,3.54,0,0,1,.1-.6A5.94,5.94,0,0,0,31,9.2ZM30.9,4c-.1.8-.1,1.9-.2,2.6l-.1,1H27.1v.3a2.39,2.39,0,0,0,.8,1.6,2.77,2.77,0,0,0,.7.4h1.6a6.61,6.61,0,0,0-.1,1.1c0,.1-.1.4-.1.6s-.1.5-.1.6H27.3a2.18,2.18,0,0,1-.1-.6,1.76,1.76,0,0,1-.1-.6c0-.2-.3-2.1-.4-3a3.75,3.75,0,0,1-.1-.8c0-.1-.1-2.1-.2-3.3h4.5Zm-.5,5.1v.2H28.8a1.52,1.52,0,0,1-1-1.1h2.7Zm-4,2.1c0,.1.1.4.1.6a1.34,1.34,0,0,1,.1.5H21.5a1.34,1.34,0,0,1,.1-.5,1.76,1.76,0,0,0,.1-.6c0-.1.1-.8.2-1.9a21.11,21.11,0,0,0,2.1.3,19.14,19.14,0,0,0,2.1-.4C26.3,10.4,26.4,11,26.4,11.2Zm-.8-8.5a7.47,7.47,0,0,0,.1,1.1,2.2,2.2,0,0,0,.1.8c-.5,0-1.4-.1-1.7-.1s-1.1.1-1.6.1a2.49,2.49,0,0,1,.1-.8,5.85,5.85,0,0,1,.1-1c0-.2-.1-.3-.2-.3h0l.1-.1.1-.1V2.2h3.1v.1l.1.1.1.1h0C25.7,2.4,25.6,2.6,25.6,2.7ZM22.4,1.1s.1-.1.7-.2h0c.3,0,.6-.1.9-.1h.1c1.4,0,1.6.2,1.6.3a.6.6,0,0,1,.1.4H22.2A.76.76,0,0,0,22.4,1.1ZM20.5,8.7V4h1.4c0,.5-.1,1-.1,1.5l-.4,3.6h.1c-.1.9-.2,1.8-.2,1.9s-.1.4-.1.6-.1.5-.1.6H19.8ZM46.6,33.6H19.5V12.9H46.7V33.6Z"/><g id="XX_" data-name="XX "><path class="cls-3" d="M44.9,18.5H40.2l-1.8,2.4-1.8-2.4H29.3l-1.8,2.4h0l-2,2.6,1.8-2.8h0l-1.7-2.2H20.9L25.1,24l-4.2,5.5h4.7l1.8-2.4,1.8,2.4h7.3l3.8-5-1.8,2.8,1.7,2.2h4.7L40.7,24Zm-12,9.6L29.8,24l3.1-4.1L36,24Z"/><path class="cls-3" d="M45.2,29.3h0l.1-.1h0a.22.22,0,0,0,.2.2h0l-.1-.1c.1,0,.1,0,.1-.1s0-.1-.1-.1h-.2Zm.1-.3h.1a.1.1,0,0,1-.1.1h0Z"/><path class="cls-3" d="M45.3,29.5a.3.3,0,1,0-.3-.3h0A.32.32,0,0,0,45.3,29.5Zm0-.6a.3.3,0,1,1-.3.3h0A.32.32,0,0,1,45.3,28.9Z"/></g></g></g></g></svg>